<svg width="1200" height="1200" viewBox="0 0 1200 1200" fill="none" xmlns="http://www.w3.org/2000/svg">
<path d="M833.459 502.92C849.029 516.47 861.489 532.57 872.049 550.21C904.589 604.6 915.589 663.49 907.609 725.93C900.039 785.16 873.269 835.36 832.429 878.25C793.949 918.67 745.999 941.87 691.999 953.55C683.739 955.34 680.849 952.9 680.819 944.51C680.479 859.7 680.139 774.88 679.819 690.07C679.779 680.27 681.389 678.65 691.039 678.75C695.539 678.79 700.029 679.04 704.519 679.11C708.149 679.16 710.209 680.84 710.209 684.54C710.219 690.2 710.039 695.85 710.039 701.51C710.019 774.84 710.029 848.16 710.029 921.49C710.029 929.67 711.299 930.63 719.179 927.99C778.919 907.91 825.599 871.05 859.359 817.96C890.679 768.69 904.139 714.58 899.429 656.55C894.759 598.92 873.419 547.86 834.649 504.49C834.219 504 833.859 503.45 833.459 502.92Z" fill="black"/>
<path d="M646.389 953.59C643.189 955.29 641.049 954.7 640.639 951.38C639.569 942.67 637.959 933.94 637.939 925.21C637.599 788.4 637.479 651.59 637.309 514.78C637.309 511.96 638.009 508.91 637.149 506.38C636.289 503.85 633.919 501.82 632.139 499.63C630.789 497.97 628.679 496.61 628.069 494.74C627.169 491.96 627.029 488.84 627.019 485.87C626.959 451.71 626.949 417.54 626.979 383.38C627.039 317.73 627.159 252.07 627.169 186.42C627.169 180.62 627.959 176.15 633.909 172.73C636.459 171.26 637.419 165.37 637.469 161.47C637.799 131.81 637.749 102.15 637.779 72.4899C637.799 57.9899 637.489 43.4899 637.909 28.9999C638.019 25.0999 640.239 21.2599 641.489 17.3999C642.189 17.3999 642.879 17.3999 643.579 17.3999C644.519 21.7999 646.249 26.1899 646.269 30.5899C646.469 74.7499 646.409 118.91 646.379 163.07C646.379 168.59 646.509 173.43 653.289 175.83C655.289 176.54 656.659 181.74 656.699 184.9C656.969 210.73 656.859 236.56 656.859 262.39C656.859 281.55 656.809 300.72 656.879 319.88C656.899 324.98 655.439 328.56 650.389 331.07C648.289 332.11 646.759 336.11 646.559 338.87C646.029 346.16 646.359 353.52 646.359 360.85C646.369 556.49 646.369 752.14 646.379 947.78C646.389 949.77 646.389 951.75 646.389 953.59Z" fill="black"/>
<path d="M658.809 646.07C658.819 564.27 658.809 482.47 658.819 400.67C658.819 384.34 658.899 368.02 658.969 351.69C659.009 343.5 660.069 342.48 668.169 342.45C671.669 342.44 675.169 342.3 678.659 342.31C684.359 342.33 689.169 347.1 689.169 352.67C689.119 426.31 689.059 499.94 689.009 573.58C688.989 601.07 689.019 628.56 688.999 656.05C688.989 665.6 688.339 666.21 678.889 666.51C669.749 666.8 667.859 668.72 667.859 677.88C667.849 742.19 667.919 806.5 667.809 870.81C667.769 894.29 667.339 917.77 666.979 941.25C666.929 944.72 666.339 948.2 665.789 951.64C665.639 952.61 664.749 953.45 664.199 954.36C663.419 953.47 662.059 952.65 661.939 951.67C660.829 942.45 659.159 933.2 659.099 923.95C658.779 873.64 658.849 823.33 658.819 773.02C658.789 730.7 658.809 688.39 658.809 646.07Z" fill="black"/>
<path d="M625.689 728.75C625.689 783.06 625.829 837.37 625.609 891.67C625.539 909.46 624.569 927.25 623.829 945.04C623.769 946.46 622.239 947.82 621.389 949.21C620.449 947.95 618.829 946.77 618.689 945.43C617.919 937.84 617.159 930.22 617.039 922.59C616.659 897.12 616.729 871.65 616.249 846.18C616.059 836.3 614.829 835.58 604.959 835.33C596.409 835.12 595.309 833.99 595.299 825.32C595.279 794 595.239 762.68 595.279 731.36C595.369 666.4 595.529 601.43 595.629 536.47C595.639 530.64 595.259 524.82 595.329 518.99C595.409 512.06 597.519 510.04 604.369 510.16C609.529 510.25 614.679 510.59 619.829 510.79C623.759 510.94 625.519 513.18 625.539 516.88C625.569 521.04 625.349 525.2 625.349 529.36C625.339 587.67 625.349 645.97 625.349 704.28C625.349 712.44 625.349 720.6 625.349 728.76C625.479 728.75 625.589 728.75 625.689 728.75Z" fill="black"/>
<path d="M602.13 953.81C589.41 951.39 577.43 948.35 565.27 946.92C500.18 939.25 424.44 876.1 392.86 810.98C374.09 772.28 363.47 731.73 364.08 688.7C365.18 610.51 393.32 543.69 450.01 489.34C451.53 487.88 453.45 486.84 455.18 485.6C455.44 485.94 455.71 486.28 455.97 486.63C450.55 492.65 445.22 498.74 439.71 504.67C405.88 541.12 385.3 584.22 377.18 632.98C367.69 689.97 374.84 745.13 401.74 796.52C436.82 863.52 490.28 909.26 563.51 930.71C563.83 930.8 564.13 930.96 564.45 931.04C573.31 933.44 574.8 932.33 574.8 923.21C574.81 901.21 574.8 879.22 574.82 857.22C574.83 849.17 576.72 847.31 584.91 847.31C589.07 847.31 593.24 847.3 597.4 847.49C603.32 847.76 604.71 849.17 604.65 855.16C604.48 872.15 604.23 889.14 603.92 906.12C603.66 920.1 603.29 934.08 602.92 948.07C602.9 949.7 602.49 951.32 602.13 953.81Z" fill="black"/>
<path d="M288.4 1060.17V1097.47H269V1004.24H317.76C338.49 1004.24 350.95 1014.25 350.95 1030.45C350.95 1042.24 344.4 1049.62 334.46 1052.56C339.02 1054.13 348.53 1058.12 348.53 1074.72V1079.2C348.53 1085.84 348.44 1093.23 349.68 1097.48H329.6C328.09 1093.39 328.03 1087.37 328.03 1078.14V1075.06C328.03 1064.24 323.97 1060.18 309.49 1060.18H288.4V1060.17ZM288.4 1045.19H313.26C325.4 1045.19 330.92 1040.86 330.92 1031.96C330.92 1023.69 325.3 1019.22 313.55 1019.22H288.4V1045.19Z" fill="black"/>
<path d="M387.079 1068.09C387.689 1077.8 394.519 1085.18 405.799 1085.18C414.679 1085.18 419.139 1082.12 421.969 1077.2H440.649C436.699 1088.6 426.709 1099.31 405.429 1099.31C378.779 1099.31 368.449 1081.12 368.449 1063.71C368.449 1044.19 381.529 1027.86 405.219 1027.86C431.389 1027.86 441.529 1046.24 441.529 1063.53C441.529 1065.06 441.529 1066.19 441.439 1068.09H387.079ZM422.459 1056.25C421.979 1050.17 418.729 1041.25 405.179 1041.25C393.089 1041.25 388.149 1048.19 387.339 1056.25H422.459Z" fill="black"/>
<path d="M479.481 998.88V1039.35C482.001 1035.19 487.971 1027.86 502.761 1027.86C519.091 1027.86 529.071 1037.38 529.071 1056.73V1097.47H510.201V1058.96C510.201 1049.43 507.311 1042.63 496.651 1042.63C485.191 1042.63 479.571 1051.37 479.571 1064.69V1097.47H460.891V998.88H479.481Z" fill="black"/>
<path d="M553.18 1097.47V998.88H571.86V1097.47H553.18Z" fill="black"/>
<path d="M660.59 1079.18C660.59 1087.29 660.99 1095.98 661.16 1097.47H643.48C642.95 1095.58 642.78 1091.11 642.69 1089.1C639.07 1095.33 631.31 1099.31 618.06 1099.31C599.33 1099.31 591.99 1087.92 591.99 1077.3C591.99 1059.65 607.62 1054.75 627.4 1054.75C633.61 1054.75 639.99 1054.75 642.33 1054.75V1052.15C642.33 1046.06 639.69 1040.83 628.33 1040.83C617.9 1040.83 615.53 1045.01 614.5 1049.63H595.82C596.47 1041.08 602.41 1027.85 628.09 1027.85C656.01 1027.85 660.6 1041.13 660.6 1052.42V1079.18H660.59ZM642.32 1066.89C640.59 1066.8 635.96 1066.8 627.75 1066.8C615.39 1066.8 610.15 1069.85 610.15 1076.36C610.15 1081.5 614.16 1085.74 623.03 1085.74C636.75 1085.74 642.32 1078.74 642.32 1068.54V1066.89Z" fill="black"/>
<path d="M677.23 1029.71H689.79V1009.16H708.57V1029.71H724.88V1043.53H708.57V1074.77C708.57 1081.17 710.021 1084.07 716.841 1084.07C718.731 1084.07 721.02 1084.03 722.91 1083.6V1096.61C719.44 1097.67 714.95 1098.04 710.3 1098.04C694.45 1098.04 689.79 1091.11 689.79 1077.85V1043.53H677.23V1029.71Z" fill="black"/>
<path d="M743.15 998.88H761.83V1015.42H743.15V998.88ZM743.15 1029.71H761.83V1097.47H743.15V1029.71Z" fill="black"/>
<path d="M852.92 1077.73C852.92 1084.29 852.83 1090.9 852.96 1097.47H834.77C834.51 1095.62 834.43 1091.98 834.33 1088.43C830.94 1094.5 825.49 1099.31 811.07 1099.31C796.85 1099.31 785.75 1091.18 785.75 1071.3V1029.71H804.43V1068.15C804.43 1077.55 807.95 1084.51 817.89 1084.51C829.62 1084.51 834.23 1077.65 834.23 1060.81V1029.71H852.91V1077.73H852.92Z" fill="black"/>
<path d="M941.571 1079.18C941.571 1087.29 941.971 1095.98 942.141 1097.47H924.461C923.931 1095.58 923.761 1091.11 923.671 1089.1C920.051 1095.33 912.291 1099.31 899.041 1099.31C880.311 1099.31 872.971 1087.92 872.971 1077.3C872.971 1059.65 888.601 1054.75 908.381 1054.75C914.591 1054.75 920.971 1054.75 923.311 1054.75V1052.15C923.311 1046.06 920.671 1040.83 909.311 1040.83C898.871 1040.83 896.511 1045.01 895.481 1049.63H876.801C877.451 1041.08 883.391 1027.85 909.071 1027.85C936.991 1027.85 941.581 1041.13 941.581 1052.42V1079.18H941.571ZM923.301 1066.89C921.571 1066.8 916.941 1066.8 908.731 1066.8C896.371 1066.8 891.131 1069.85 891.131 1076.36C891.131 1081.5 895.141 1085.74 904.011 1085.74C917.731 1085.74 923.301 1078.74 923.301 1068.54V1066.89Z" fill="black"/>
<path d="M980.06 1068.09C980.67 1077.8 987.5 1085.18 998.78 1085.18C1007.66 1085.18 1012.12 1082.12 1014.95 1077.2H1033.63C1029.68 1088.6 1019.69 1099.31 998.41 1099.31C971.76 1099.31 961.43 1081.12 961.43 1063.71C961.43 1044.19 974.51 1027.86 998.2 1027.86C1024.37 1027.86 1034.51 1046.24 1034.51 1063.53C1034.51 1065.06 1034.51 1066.19 1034.42 1068.09H980.06ZM1015.44 1056.25C1014.97 1050.17 1011.71 1041.25 998.16 1041.25C986.07 1041.25 981.13 1048.19 980.32 1056.25H1015.44Z" fill="black"/>
</svg>
