<svg width="100" height="22" viewBox="0 0 100 22" fill="none" xmlns="http://www.w3.org/2000/svg">
<path d="M10.978 11.3549C11.3421 11.6718 11.6335 12.0483 11.8805 12.4608C12.6415 13.7328 12.8987 15.1101 12.7121 16.5704C12.5351 17.9556 11.909 19.1296 10.9539 20.1327C10.0539 21.078 8.93253 21.6206 7.66964 21.8937C7.47646 21.9356 7.40887 21.8785 7.40817 21.6823C7.40022 19.6989 7.39227 17.7152 7.38478 15.7317C7.38385 15.5025 7.4215 15.4646 7.64718 15.467C7.75242 15.4679 7.85743 15.4738 7.96244 15.4754C8.04734 15.4766 8.09551 15.5159 8.09551 15.6024C8.09575 15.7348 8.09154 15.8669 8.09154 15.9993C8.09107 17.7142 8.0913 19.429 8.0913 21.1439C8.0913 21.3352 8.121 21.3577 8.30529 21.296C9.70243 20.8263 10.7941 19.9643 11.5837 18.7227C12.3162 17.5704 12.6309 16.3049 12.5208 14.9478C12.4116 13.6 11.9125 12.4059 11.0058 11.3916C10.9957 11.3801 10.9873 11.3673 10.978 11.3549Z" fill="black"/>
<path d="M6.60276 21.8946C6.52792 21.9344 6.47788 21.9206 6.46829 21.8429C6.44326 21.6392 6.40561 21.4351 6.40514 21.2309C6.39719 18.0313 6.39438 14.8318 6.39041 11.6322C6.39041 11.5663 6.40678 11.4949 6.38667 11.4358C6.36655 11.3766 6.31113 11.3291 6.2695 11.2779C6.23793 11.2391 6.18858 11.2073 6.17431 11.1635C6.15326 11.0985 6.14999 11.0255 6.14976 10.9561C6.14835 10.1572 6.14812 9.35806 6.14882 8.55916C6.15022 7.0238 6.15303 5.48822 6.15326 3.95286C6.15326 3.81722 6.17174 3.71268 6.31089 3.6327C6.37053 3.59832 6.39298 3.46057 6.39415 3.36936C6.40187 2.6757 6.4007 1.98204 6.4014 1.28839C6.40187 0.949276 6.39462 0.610166 6.40444 0.271289C6.40701 0.18008 6.45893 0.0902736 6.48817 0C6.50454 0 6.52067 0 6.53704 0C6.55903 0.102903 6.59949 0.205571 6.59996 0.308474C6.60463 1.34124 6.60323 2.37401 6.60253 3.40678C6.60253 3.53587 6.60557 3.64907 6.76413 3.7052C6.81091 3.7218 6.84295 3.84341 6.84388 3.91732C6.8502 4.5214 6.84762 5.12549 6.84762 5.72957C6.84762 6.17766 6.84645 6.62599 6.84809 7.07409C6.84856 7.19336 6.81441 7.27709 6.69631 7.33579C6.6472 7.36011 6.61141 7.45366 6.60674 7.5182C6.59434 7.6887 6.60206 7.86082 6.60206 8.03225C6.60229 12.6077 6.60229 17.1833 6.60253 21.7588C6.60276 21.8053 6.60276 21.8516 6.60276 21.8946Z" fill="black"/>
<path d="M6.89273 14.7027C6.89296 12.7896 6.89273 10.8766 6.89296 8.96351C6.89296 8.5816 6.89483 8.19992 6.89647 7.81801C6.89741 7.62648 6.9222 7.60262 7.11163 7.60192C7.19349 7.60169 7.27534 7.59841 7.35696 7.59864C7.49027 7.59911 7.60276 7.71067 7.60276 7.84093C7.60159 9.56315 7.60019 11.2851 7.59902 13.0073C7.59855 13.6503 7.59925 14.2932 7.59878 14.9361C7.59855 15.1594 7.58335 15.1737 7.36234 15.1807C7.14858 15.1875 7.10438 15.2324 7.10438 15.4466C7.10415 16.9506 7.10579 18.4546 7.10321 19.9587C7.10228 20.5078 7.09222 21.0569 7.0838 21.606C7.08263 21.6872 7.06883 21.7686 7.05597 21.849C7.05246 21.8717 7.03165 21.8914 7.01879 21.9126C7.00054 21.8918 6.96874 21.8726 6.96593 21.8497C6.93997 21.6341 6.90092 21.4178 6.89951 21.2014C6.89203 20.0248 6.89367 18.8482 6.89296 17.6716C6.89226 16.6819 6.89273 15.6924 6.89273 14.7027Z" fill="black"/>
<path d="M6.1198 16.6363C6.1198 17.9065 6.12307 19.1766 6.11793 20.4465C6.11629 20.8626 6.09361 21.2786 6.0763 21.6947C6.0749 21.7279 6.03912 21.7597 6.01924 21.7922C5.99725 21.7627 5.95937 21.7351 5.95609 21.7038C5.93808 21.5263 5.92031 21.3481 5.9175 21.1696C5.90862 20.574 5.91025 19.9783 5.89903 19.3826C5.89458 19.1516 5.86582 19.1347 5.63499 19.1289C5.43503 19.124 5.4093 19.0976 5.40907 18.8948C5.4086 18.1623 5.40767 17.4298 5.4086 16.6974C5.41071 15.1781 5.41445 13.6587 5.41679 12.1395C5.41702 12.0031 5.40814 11.867 5.40977 11.7307C5.41164 11.5686 5.46099 11.5214 5.62119 11.5242C5.74187 11.5263 5.86231 11.5342 5.98275 11.5389C6.07466 11.5424 6.11582 11.5948 6.11629 11.6813C6.11699 11.7786 6.11185 11.8759 6.11185 11.9732C6.11161 13.3369 6.11185 14.7003 6.11185 16.064C6.11185 16.2549 6.11185 16.4457 6.11185 16.6366C6.11489 16.6363 6.11746 16.6363 6.1198 16.6363Z" fill="black"/>
<path d="M5.56785 21.8997C5.27037 21.8431 4.99019 21.772 4.70581 21.7386C3.18355 21.5592 1.41222 20.0823 0.673659 18.5594C0.234686 17.6543 -0.0136834 16.7059 0.000582637 15.6996C0.0263083 13.871 0.684418 12.3083 2.01022 11.0372C2.04577 11.003 2.09068 10.9787 2.13113 10.9497C2.13722 10.9577 2.14353 10.9656 2.14961 10.9738C2.02285 11.1146 1.8982 11.257 1.76934 11.3957C0.978158 12.2482 0.496854 13.2561 0.306952 14.3965C0.0850097 15.7293 0.252226 17.0193 0.881336 18.2212C1.70175 19.7881 2.95202 20.8578 4.66464 21.3595C4.67213 21.3616 4.67914 21.3653 4.68663 21.3672C4.89384 21.4233 4.92868 21.3974 4.92868 21.1841C4.92892 20.6696 4.92868 20.1553 4.92915 19.6408C4.92938 19.4525 4.97359 19.409 5.16512 19.409C5.26241 19.409 5.35994 19.4088 5.45723 19.4132C5.59568 19.4195 5.62819 19.4525 5.62678 19.5926C5.62281 19.9899 5.61696 20.3873 5.60971 20.7844C5.60363 21.1113 5.59498 21.4383 5.58632 21.7655C5.58586 21.8036 5.57627 21.8415 5.56785 21.8997Z" fill="black"/>
<path d="M19.0905 16.6046V20.6241H17V10.5776H22.2544C24.4882 10.5776 25.8309 11.6563 25.8309 13.402C25.8309 14.6725 25.1251 15.4678 24.0539 15.7846C24.5453 15.9538 25.5701 16.3837 25.5701 18.1725V18.6553C25.5701 19.3708 25.5604 20.1672 25.694 20.6251H23.5302C23.3675 20.1844 23.361 19.5357 23.361 18.5411V18.2092C23.361 17.0432 22.9235 16.6057 21.3632 16.6057H19.0905V16.6046ZM19.0905 14.9904H21.7694C23.0776 14.9904 23.6725 14.5238 23.6725 13.5647C23.6725 12.6736 23.0669 12.1919 21.8007 12.1919H19.0905V14.9904Z" fill="black"/>
<path d="M29.7244 17.458C29.7901 18.5043 30.5261 19.2996 31.7416 19.2996C32.6985 19.2996 33.1791 18.9698 33.4841 18.4397H35.497C35.0714 19.6681 33.9949 20.8222 31.7017 20.8222C28.83 20.8222 27.7168 18.8621 27.7168 16.986C27.7168 14.8825 29.1263 13.1228 31.6791 13.1228C34.4992 13.1228 35.5919 15.1034 35.5919 16.9666C35.5919 17.1315 35.5919 17.2532 35.5822 17.458H29.7244ZM33.5369 16.1821C33.4852 15.5269 33.1349 14.5657 31.6748 14.5657C30.372 14.5657 29.8397 15.3136 29.7524 16.1821H33.5369Z" fill="black"/>
<path d="M39.681 10V14.361C39.9525 13.9127 40.5959 13.1229 42.1896 13.1229C43.9493 13.1229 45.0248 14.1487 45.0248 16.2339V20.624H42.9914V16.4742C42.9914 15.4472 42.6799 14.7145 41.5312 14.7145C40.2963 14.7145 39.6907 15.6563 39.6907 17.0916V20.624H37.6777V10H39.681Z" fill="black"/>
<path d="M47.623 20.624V10H49.636V20.624H47.623Z" fill="black"/>
<path d="M59.199 18.653C59.199 19.5269 59.242 20.4634 59.2604 20.6239H57.3552C57.2981 20.4203 57.2798 19.9386 57.2701 19.722C56.88 20.3933 56.0437 20.8222 54.6159 20.8222C52.5976 20.8222 51.8066 19.5948 51.8066 18.4504C51.8066 16.5485 53.4909 16.0204 55.6224 16.0204C56.2916 16.0204 56.9791 16.0204 57.2313 16.0204V15.7403C57.2313 15.084 56.9468 14.5204 55.7226 14.5204C54.5987 14.5204 54.3433 14.9709 54.2323 15.4687H52.2194C52.2894 14.5474 52.9295 13.1217 55.6968 13.1217C58.7054 13.1217 59.2 14.5528 59.2 15.7694V18.653H59.199ZM57.2302 17.3286C57.0438 17.3189 56.5448 17.3189 55.6601 17.3189C54.3282 17.3189 53.7636 17.6476 53.7636 18.3491C53.7636 18.903 54.1957 19.3599 55.1515 19.3599C56.63 19.3599 57.2302 18.6056 57.2302 17.5064V17.3286Z" fill="black"/>
<path d="M60.9902 13.3222H62.3437V11.1078H64.3674V13.3222H66.125V14.8115H64.3674V18.1779C64.3674 18.8676 64.5237 19.1801 65.2586 19.1801C65.4623 19.1801 65.709 19.1757 65.9127 19.1294V20.5314C65.5388 20.6456 65.0549 20.6855 64.5538 20.6855C62.8459 20.6855 62.3437 19.9387 62.3437 18.5098V14.8115H60.9902V13.3222Z" fill="black"/>
<path d="M68.0957 10H70.1087V11.7823H68.0957V10ZM68.0957 13.3222H70.1087V20.624H68.0957V13.3222Z" fill="black"/>
<path d="M79.9238 18.4968C79.9238 19.2037 79.9141 19.916 79.9281 20.6239H77.9679C77.9399 20.4246 77.9313 20.0323 77.9205 19.6498C77.5552 20.3039 76.9679 20.8222 75.414 20.8222C73.8817 20.8222 72.6855 19.9461 72.6855 17.8039V13.3221H74.6985V17.4644C74.6985 18.4774 75.0778 19.2274 76.1489 19.2274C77.413 19.2274 77.9097 18.4881 77.9097 16.6735V13.3221H79.9227V18.4968H79.9238Z" fill="black"/>
<path d="M89.4763 18.653C89.4763 19.5269 89.5194 20.4634 89.5377 20.6239H87.6325C87.5754 20.4203 87.5571 19.9386 87.5474 19.722C87.1573 20.3933 86.3211 20.8222 84.8933 20.8222C82.8749 20.8222 82.084 19.5948 82.084 18.4504C82.084 16.5485 83.7683 16.0204 85.8998 16.0204C86.5689 16.0204 87.2564 16.0204 87.5086 16.0204V15.7403C87.5086 15.084 87.2241 14.5204 86 14.5204C84.875 14.5204 84.6206 14.9709 84.5097 15.4687H82.4967C82.5667 14.5474 83.2068 13.1217 85.9741 13.1217C88.9828 13.1217 89.4774 14.5528 89.4774 15.7694V18.653H89.4763ZM87.5075 17.3286C87.3211 17.3189 86.8222 17.3189 85.9375 17.3189C84.6056 17.3189 84.0409 17.6476 84.0409 18.3491C84.0409 18.903 84.473 19.3599 85.4288 19.3599C86.9073 19.3599 87.5075 18.6056 87.5075 17.5064V17.3286Z" fill="black"/>
<path d="M93.6228 17.458C93.6885 18.5043 94.4245 19.2996 95.6401 19.2996C96.597 19.2996 97.0776 18.9698 97.3825 18.4397H99.3955C98.9698 19.6681 97.8933 20.8222 95.6002 20.8222C92.7284 20.8222 91.6152 18.8621 91.6152 16.986C91.6152 14.8825 93.0247 13.1228 95.5776 13.1228C98.3976 13.1228 99.4903 15.1034 99.4903 16.9666C99.4903 17.1315 99.4903 17.2532 99.4806 17.458H93.6228ZM97.4353 16.1821C97.3847 15.5269 97.0334 14.5657 95.5732 14.5657C94.2704 14.5657 93.7381 15.3136 93.6508 16.1821H97.4353Z" fill="black"/>
</svg>
